<svg width="129" height="27" viewBox="0 0 129 27" fill="none" xmlns="http://www.w3.org/2000/svg"><path d="M57.8231 11.2069V0.953773H61.6978C63.5458 0.83455 65.3937 1.6095 65.3937 3.63629C65.3937 4.76891 64.6188 5.54386 63.6054 5.90153C64.9168 6.19958 65.8706 7.09375 65.8706 8.58404C65.8706 10.6108 63.3073 11.3858 61.7574 11.2666H57.8231V11.2069ZM61.7574 5.06697C62.7112 5.06697 63.1881 4.7093 63.1881 3.87473C63.1881 3.04017 62.6516 2.68251 61.7574 2.68251H60.0287V5.12658H61.7574V5.06697ZM61.7574 9.47821C62.7708 9.47821 63.4862 9.29938 63.4862 8.10715C63.4862 6.91492 62.7708 6.73609 61.7574 6.73609H60.0287V9.47821H61.7574ZM69.3877 0.953773V11.2069H67.2417V0.953773H69.3877ZM75.8853 10.3128C75.4085 10.9685 74.7527 11.3858 73.6797 11.3858C72.9644 11.3858 71.5933 10.8493 71.3549 9.83588C71.2357 9.4186 71.2357 8.94171 71.2357 8.70326V4.05357H73.3817V8.3456C73.3817 9.12055 73.6201 10.0147 74.6335 10.0147C75.2892 10.0147 75.8853 9.4186 75.8853 8.3456V4.05357H78.0314V9.8955C78.0314 10.3128 78.091 10.7301 78.091 11.1473H75.945L75.8853 10.3128ZM81.7869 8.22637C81.7869 9.18016 81.9061 10.0147 83.0387 10.0147C83.7541 10.0147 84.1713 9.71666 84.3502 9.06093H86.2577C86.0789 10.8493 84.7079 11.3858 83.0387 11.3858C80.5947 11.3858 79.5813 10.0147 79.5813 7.63026C79.5813 5.48424 80.8331 3.81512 83.0387 3.81512C84.3502 3.81512 85.4828 4.29202 86.0789 5.54386C86.2577 5.96114 86.377 6.37842 86.4366 6.7957C86.4962 7.21298 86.4962 7.68987 86.4962 8.16676H81.7869V8.22637ZM84.2906 6.7957C84.2906 6.02075 84.0521 5.30541 83.0387 5.30541C82.0849 5.30541 81.8465 6.02075 81.7869 6.7957H84.2906ZM93.7092 4.2324C93.7092 3.1594 93.0535 2.26523 91.742 2.26523C90.1921 2.26523 89.7748 4.59007 89.7748 6.02075C89.7748 7.45142 90.1921 9.77627 91.742 9.77627C93.0535 9.77627 93.7092 8.8821 93.7092 7.80909H96.034C95.9148 10.3724 94.0668 11.3262 91.742 11.3262C88.7614 11.3262 87.45 9.00132 87.45 5.96114C87.45 2.98056 88.7614 0.596104 91.742 0.596104C94.1265 0.596104 95.9744 1.54989 96.034 4.11318H93.7092V4.2324ZM99.1338 4.05357L99.1934 5.36502C99.6703 4.2324 100.565 3.93435 101.638 3.99396V5.90153H100.684C100.326 5.90153 99.8492 6.13997 99.6703 6.43803C99.4319 6.85531 99.3723 7.21298 99.3723 7.68987V11.2069H97.2263V5.48424C97.2263 5.18619 97.1666 4.59007 97.1666 4.05357H99.1338ZM106.287 11.4454C103.962 11.4454 102.532 9.89549 102.532 7.63026C102.532 5.36502 103.903 3.81512 106.287 3.81512C108.612 3.81512 110.043 5.36502 110.043 7.63026C110.043 9.89549 108.612 11.4454 106.287 11.4454ZM106.287 10.0147C107.599 10.0147 107.837 8.76288 107.837 7.63026C107.837 6.49764 107.599 5.2458 106.287 5.2458C104.976 5.2458 104.737 6.49764 104.737 7.63026C104.797 8.76288 104.976 10.0147 106.287 10.0147ZM115.169 5.96114C115.169 5.48425 114.692 5.2458 114.216 5.2458C113.619 5.2458 113.381 5.42463 113.381 5.90153C113.381 7.03414 117.494 6.37842 117.494 9.06093C117.494 10.6108 115.587 11.3858 114.275 11.3858C112.606 11.3858 111.175 10.7301 111.116 9.12055H113.083C113.143 9.65705 113.619 10.0147 114.275 10.0147C114.871 10.0147 115.289 9.77627 115.289 9.23977C115.289 8.64365 114.275 8.40521 113.858 8.3456C112.487 8.04754 111.235 7.68987 111.235 6.08036C111.235 4.59007 113.023 3.93435 114.275 3.93435C115.765 3.93435 117.077 4.47085 117.136 6.08036H115.169V5.96114ZM122.263 5.96114C122.263 5.48425 121.786 5.2458 121.309 5.2458C120.713 5.2458 120.475 5.42463 120.475 5.90153C120.475 7.03414 124.588 6.37842 124.588 9.06093C124.588 10.6108 122.68 11.3858 121.369 11.3858C119.7 11.3858 118.269 10.7301 118.21 9.12055H120.177C120.236 9.65705 120.713 10.0147 121.369 10.0147C121.965 10.0147 122.382 9.77627 122.382 9.23977C122.382 8.64365 121.369 8.40521 120.952 8.3456C119.581 8.04754 118.329 7.68987 118.329 6.08036C118.329 4.59007 120.117 3.93435 121.369 3.93435C122.859 3.93435 124.171 4.47085 124.23 6.08036H122.263V5.96114ZM57.8231 25.156V14.9029H61.6978C63.5458 14.7836 65.3937 15.5586 65.3937 17.5854C65.3937 18.718 64.6188 19.4929 63.6054 19.8506C64.9168 20.1487 65.8706 21.0428 65.8706 22.5331C65.8706 24.5599 63.3073 25.3349 61.7574 25.2156H57.8231V25.156ZM61.7574 19.0161C62.7112 19.0161 63.1881 18.6584 63.1881 17.8238C63.1881 16.9893 62.6516 16.6316 61.7574 16.6316H60.0287V19.0757L61.7574 19.0161ZM61.7574 23.4273C62.7708 23.4273 63.4862 23.2485 63.4862 22.0562C63.4862 20.864 62.7708 20.6852 61.7574 20.6852H60.0287V23.4273H61.7574ZM69.3877 14.9029V25.156H67.2417V14.9029H69.3877ZM75.8853 24.2619C75.4085 24.9176 74.7527 25.3349 73.6797 25.3349C72.9644 25.3349 71.5933 24.7984 71.3549 23.7254C71.2357 23.3081 71.2357 22.8312 71.2357 22.5927V17.943H73.3817V22.2947C73.3817 23.0696 73.6201 23.9638 74.6335 23.9638C75.2892 23.9638 75.8853 23.3677 75.8853 22.2947V18.0027H78.0314V23.8446C78.0314 24.2619 78.091 24.6791 78.091 25.0964H75.945L75.8853 24.2619ZM81.7869 22.1755C81.7869 23.1292 81.9061 23.9638 83.0387 23.9638C83.7541 23.9638 84.1713 23.6657 84.3502 23.01H86.2577C86.0789 24.7984 84.7079 25.3349 83.0387 25.3349C80.5947 25.3349 79.5813 23.9638 79.5813 21.5793C79.5813 19.4333 80.8331 17.7642 83.0387 17.7642C84.3502 17.7642 85.4828 18.2411 86.0789 19.4929C86.2577 19.9102 86.377 20.3275 86.4366 20.7448C86.4962 21.1621 86.4962 21.639 86.4962 22.1158L81.7869 22.1755ZM84.2906 20.7448C84.2906 19.9698 84.0521 19.2545 83.0387 19.2545C82.0849 19.2545 81.8465 19.9698 81.7869 20.7448H84.2906ZM93.4111 17.8238C93.3515 16.8104 92.7554 16.2739 91.6824 16.2739C90.8478 16.2739 90.0729 16.6912 90.0729 17.5854C90.0729 18.718 91.0863 18.8372 91.9805 19.0161C93.5304 19.4333 95.8552 19.8506 95.8552 21.937C95.8552 24.5003 93.6496 25.3945 91.4439 25.3945C89.1191 25.3945 87.45 24.5003 87.5096 21.8774H89.7748C89.7152 23.01 90.3709 23.785 91.5036 23.785C92.3977 23.785 93.5303 23.4869 93.5303 22.4139C93.5303 21.2217 92.0401 21.1025 91.2055 20.864C89.7748 20.5063 87.8076 19.8506 87.8076 18.0027C87.8076 15.6778 89.9537 14.6048 92.0997 14.6048C94.0669 14.6048 95.6167 15.6778 95.6167 17.7642L93.4111 17.8238ZM97.3455 25.156V14.9029H99.4915V18.8968C99.9088 18.2411 100.624 17.8238 101.697 17.8238C102.412 17.8238 103.784 18.3603 104.022 19.3737C104.141 19.791 104.141 20.2679 104.141 20.5063V25.156H102.055V20.864C102.055 20.0891 101.816 19.2545 100.803 19.2545C100.147 19.2545 99.5511 19.8506 99.5511 20.864V25.156H97.3455ZM108.254 14.9029V16.7508H105.989V14.9029H108.254ZM108.135 18.0027V25.156H105.989V18.0027H108.135ZM111.891 22.1755C111.891 23.1292 112.01 23.9638 113.143 23.9638C113.858 23.9638 114.275 23.6657 114.454 23.01H116.362C116.183 24.7984 114.812 25.3349 113.143 25.3349C110.698 25.3349 109.685 23.9638 109.685 21.5793C109.685 19.4333 110.937 17.7642 113.143 17.7642C114.454 17.7642 115.587 18.2411 116.183 19.4929C116.362 19.9102 116.481 20.3275 116.54 20.7448C116.6 21.1621 116.6 21.639 116.6 22.1158L111.891 22.1755ZM114.335 20.7448C114.335 19.9698 114.096 19.2545 113.083 19.2545C112.129 19.2545 111.891 19.9698 111.831 20.7448H114.335ZM119.998 14.9029V25.156H117.852V14.9029H119.998ZM126.794 14.9029H128.94V23.785C128.94 24.2619 128.999 24.7388 128.999 25.2156H126.853C126.853 24.858 126.794 24.5599 126.794 24.2023C126.317 25.0368 125.542 25.4541 124.588 25.4541C122.502 25.4541 121.488 23.4869 121.488 21.639C121.488 19.7314 122.621 17.8238 124.826 17.8238C125.542 17.8238 126.317 18.2411 126.734 18.8372L126.794 14.9029ZM125.244 23.9638C126.376 23.9638 126.794 22.5927 126.794 21.5793C126.794 20.6256 126.436 19.1949 125.244 19.1949C123.873 19.1949 123.694 20.4467 123.694 21.5793C123.694 22.6524 123.873 23.9638 125.244 23.9638Z" fill="black"></path><path d="M39.0903 7.15927C39.0249 7.22436 38.9596 7.28944 38.8288 7.28944C38.6327 7.28944 38.6327 7.15927 38.502 7.02911C38.4366 6.96402 38.3059 7.02911 38.2405 6.89894C38.502 6.89894 38.9596 6.89894 39.1557 7.15927C39.221 7.15927 39.0903 7.15927 39.0903 7.15927Z" fill="#A5A5AD"></path><path fill-rule="evenodd" clip-rule="evenodd" d="M18.4996 7.41962V0.325413H7.12528V7.41962H0V18.8094H7.12528V25.9036H18.4996V18.8094H25.6248V7.41962H18.4996ZM12.8755 6.11797C15.6864 6.11797 18.1705 7.74509 19.2817 10.1532H14.2483C13.5292 10.1532 13.2024 9.69762 13.2024 9.3722C13.2024 8.98169 13.2677 8.85152 13.5946 8.39593C13.9868 7.94034 13.7253 6.96407 12.8755 6.96407C12.0257 6.96407 11.8296 7.87525 12.1565 8.39593C12.4833 8.85152 12.5487 8.98169 12.5487 9.3722C12.5487 9.69762 12.2218 10.1532 11.5028 10.1532H6.46932C7.5806 7.74509 9.99927 6.11797 12.8755 6.11797ZM6.27498 10.6739C5.94814 11.4549 5.8174 12.301 5.8174 13.1471C5.8174 15.3599 6.86331 17.3776 8.49755 18.6793L11.766 12.6264C11.9621 12.1057 11.8968 11.2596 10.9816 11.1294L6.27498 10.6739ZM16.7357 19.0046C15.6244 19.7206 14.3171 20.1762 12.8789 20.1762C11.4408 20.1762 10.1334 19.7206 9.02212 19.0046L12.4867 13.863C12.7482 13.5375 13.1404 13.5375 13.3365 13.863L16.7357 19.0046ZM13.9257 12.6264L17.1942 18.6793C18.8284 17.3776 19.9397 15.3599 19.8743 13.1471C19.8743 12.301 19.6782 11.4549 19.4168 10.6739L14.7102 11.1294C13.795 11.2596 13.6642 12.1057 13.9257 12.6264Z" fill="#0099CC"></path><path d="M10.5252 12.0406L6.92986 11.7152C6.79912 12.1708 6.73375 12.6264 6.73375 13.1471C6.73375 14.644 7.25671 16.0108 8.17188 17.1172L10.6559 12.3661C10.852 12.1708 10.7867 12.0406 10.5252 12.0406Z" fill="#0099CC"></path><path d="M12.8799 14.9694C12.8145 14.9694 12.8145 14.9694 12.7491 15.0345L10.3958 18.6792C11.1802 19.0046 11.9647 19.1999 12.8799 19.1999C13.7297 19.1999 14.5795 19.0046 15.3639 18.6792L13.0106 15.0345C12.9452 15.0345 12.8799 14.9694 12.8799 14.9694Z" fill="#0099CC"></path><path d="M11.1771 7.35456C10.0005 7.67998 9.01992 8.33083 8.23549 9.24201H11.4386C11.504 9.24201 11.504 9.17693 11.4386 9.11184C11.1117 8.72134 10.7849 7.94032 11.1771 7.35456Z" fill="#0099CC"></path><path d="M15.1651 12.0407C14.9036 12.0407 14.9036 12.1708 14.969 12.301L17.453 17.0522C18.3682 16.0108 18.8911 14.644 18.8911 13.082C18.8911 12.5613 18.8258 12.1057 18.695 11.6502L15.1651 12.0407Z" fill="#0099CC"></path><path d="M17.4547 9.17689C16.6702 8.26571 15.6897 7.61487 14.5131 7.28944C14.8399 7.8752 14.5784 8.65622 14.2516 9.04673C14.1862 9.11181 14.2516 9.17689 14.2516 9.17689H17.4547Z" fill="#0099CC"></path><path fill-rule="evenodd" clip-rule="evenodd" d="M43.4062 4.75116C42.2295 4.88133 41.0529 5.0115 39.8762 5.0115C38.6996 5.0115 37.5229 4.88133 36.3463 4.75116C35.1696 4.621 33.993 4.29557 32.8163 3.97015H32.8163C31.9665 6.37828 32.1626 9.43725 32.8163 12.1708C34.0583 17.3125 37.1961 21.2175 39.9416 22.9097C42.6871 21.2175 45.8249 17.3125 47.0669 12.1708C47.7206 9.43725 47.9167 6.37828 47.0669 3.97015C45.7595 4.36066 44.5828 4.62099 43.4062 4.75116ZM39.2236 20.5667C39.1811 20.7357 39.2214 20.8499 39.2548 20.9448C39.2729 20.9961 39.2889 21.0417 39.2889 21.0874C39.2236 21.2826 39.0928 21.2175 39.0275 21.0874C38.8967 20.8921 38.8314 20.7619 38.8314 20.5016C38.7716 20.0257 38.985 19.8216 39.1219 19.6907L39.122 19.6906C39.1348 19.6783 39.147 19.6667 39.1582 19.6555C39.2889 19.5253 39.4197 19.4603 39.4197 19.4603L39.4851 20.3064C39.3543 20.2413 39.2236 20.3064 39.2236 20.5667ZM40.0065 21.6732C40.268 21.6732 40.3334 21.543 40.3334 21.4128C40.3334 21.2818 40.344 20.9819 40.3566 20.6237L40.3567 20.6237V20.6236V20.6236V20.6236V20.6236L40.3567 20.6235L40.3567 20.6233L40.3567 20.6232L40.3567 20.6231L40.3567 20.623L40.3567 20.6228C40.3755 20.0915 40.3988 19.4321 40.3988 19.0047C40.3988 18.9722 40.3824 18.9559 40.3661 18.9396C40.3497 18.9234 40.3334 18.9071 40.3334 18.8745C40.2026 18.7444 40.0719 18.6142 40.0065 18.6142C39.8758 18.484 39.6143 18.4189 39.6143 18.4189C39.6143 18.4189 39.6143 20.3715 39.6797 21.3477C39.6797 21.6081 39.8104 21.6732 40.0065 21.6732ZM41.1192 19.5254C40.8577 19.7206 40.5962 19.7857 40.5962 19.7857V19.0047C40.5962 19.0047 40.6616 18.9396 40.6616 18.8094C40.5962 18.6793 40.0733 18.2888 39.8118 18.2237C39.668 18.1521 39.4847 18.1002 39.2945 18.0464L39.2945 18.0464C39.1388 18.0023 38.9784 17.9569 38.8313 17.8983C38.1776 17.6379 37.9815 17.0522 38.2429 16.4664C38.3083 16.2061 38.5698 16.0759 38.7659 16.0108C38.8966 15.9457 39.1581 15.8806 39.1581 15.8806L39.2235 16.7267C39.2235 16.7267 39.1581 16.7267 39.0927 16.8569C39.0274 16.9871 39.1581 17.1173 39.2235 17.1173C39.3695 17.1899 39.5517 17.2716 39.7466 17.359C40.0752 17.5063 40.4397 17.6698 40.727 17.8332C41.3153 18.1586 41.5114 18.4189 41.5114 18.8094C41.5114 19.1349 41.3807 19.3301 41.1192 19.5254ZM39.8967 15.4133C39.7881 15.4002 39.661 15.3848 39.4863 15.36L39.5516 16.8569L39.9439 17.0521L40.3361 17.2474L40.4014 15.4901C40.1994 15.4499 40.0723 15.4345 39.8967 15.4133ZM42.0992 15.7505C42.0339 16.0759 41.8377 16.3362 41.5109 16.5315C41.1841 16.7267 40.7918 16.7267 40.7918 16.7267V15.6854C40.7918 15.6854 40.8572 15.6854 40.9226 15.6203C40.9879 15.5552 40.9879 15.4901 40.9879 15.4251C40.9879 15.36 40.9226 15.2949 40.8572 15.2298C40.7265 15.1647 40.5957 15.1647 40.5304 15.1647C40.2689 15.1322 40.0237 15.0996 39.7786 15.0671C39.5334 15.0345 39.2883 15.002 39.0269 14.9695C38.1117 14.8393 37.458 14.2535 37.5234 13.4074C37.5834 12.8698 38.0839 12.6612 38.5195 12.4795C38.5585 12.4633 38.597 12.4472 38.6346 12.4312L38.9615 13.082C39.0269 13.3423 39.0922 13.4725 39.0922 13.4725C39.0922 13.4725 38.8961 13.5376 38.8961 13.6678C38.8961 13.7979 39.0922 13.863 39.1576 13.863C39.8113 13.9281 40.6611 14.0583 41.1187 14.1884C41.4455 14.3186 41.707 14.4488 41.9031 14.7091C42.0992 15.0996 42.1646 15.36 42.0992 15.7505ZM39.8117 11.585C39.2887 11.52 39.0926 11.52 39.0926 11.52L39.0273 11.7152C39.0273 11.7152 38.7658 11.7803 38.7004 11.8454C38.7004 11.8671 38.6932 11.8815 38.6859 11.896C38.6714 11.9249 38.6568 11.9539 38.7004 12.0406C38.7647 12.1687 38.8251 12.277 38.8814 12.3783C39.0544 12.6888 39.1902 12.9326 39.2887 13.4725C39.4456 13.4985 39.5816 13.5246 39.7176 13.5506C39.9215 13.5896 40.1255 13.6287 40.4 13.6677L40.4654 11.7152C40.4654 11.7152 40.2039 11.585 39.8117 11.585ZM40.8594 13.4725C40.8594 13.4725 40.9248 12.5613 40.9248 12.1057C41.1863 11.9756 41.2516 11.7803 41.1209 11.585C41.0555 11.4549 40.8594 11.3898 40.794 11.3898C40.44 11.3017 40.1159 11.2732 39.7811 11.2438H39.7811L39.7811 11.2438C39.6215 11.2298 39.4594 11.2156 39.2905 11.1945C38.833 11.1295 38.4407 11.0644 38.0485 10.9993C37.1987 10.804 36.4797 10.4135 36.0874 9.63251C35.6299 8.65625 36.0221 7.48472 36.9372 6.96405C37.6563 6.57354 38.4407 6.63863 39.1598 6.96405C39.3847 7.02002 39.5128 7.22038 39.6275 7.39957L39.6275 7.39962C39.6462 7.42879 39.6645 7.45739 39.6828 7.48472C39.7026 7.50443 39.7283 7.52414 39.7565 7.54565C39.8213 7.59519 39.8987 7.65431 39.9442 7.74506C40.0096 7.81015 39.8789 7.81015 39.8789 7.81015C39.7481 7.87523 39.2252 7.87523 39.0291 7.81015H38.2446C38.3427 7.87523 38.4571 7.94031 38.5715 8.0054L38.5715 8.0054C38.6859 8.07048 38.8003 8.13557 38.8983 8.20065C38.9637 8.2332 39.0291 8.24947 39.0944 8.26574C39.1598 8.28201 39.2252 8.29828 39.2905 8.33082C39.3559 8.33082 39.4867 8.39591 39.4867 8.46099C39.4867 8.49754 39.4454 8.51357 39.3977 8.53212C39.3604 8.5466 39.3192 8.56262 39.2905 8.59116C39.0944 8.65625 38.833 8.65625 38.5715 8.59116C38.4129 8.56484 38.2864 8.5066 38.1746 8.45516C38.01 8.37939 37.8774 8.31837 37.7217 8.39591C37.5256 8.52608 37.5256 8.72133 37.5909 8.98167C37.6563 9.30709 38.0485 9.50234 38.3754 9.56743C38.821 9.69793 39.2772 9.7447 39.7354 9.79168C40.4199 9.86185 41.1089 9.9325 41.7746 10.2834C42.1668 10.4786 42.6898 10.9342 42.7551 11.3898C43.0166 13.2122 40.8594 13.4725 40.8594 13.4725ZM42.6516 7.78955C42.7232 7.72984 42.7703 7.69054 42.8174 7.54981C42.9481 7.09422 42.3598 6.7688 42.2291 6.89897C41.9779 7.00616 41.7857 7.17219 41.5879 7.34323C41.4253 7.48375 41.2588 7.62765 41.0524 7.74507C41.0524 7.74507 40.9217 7.74507 40.9217 7.67998C40.8901 7.58562 40.9043 7.43045 40.92 7.25856C40.9369 7.07478 40.9554 6.87187 40.9217 6.70371C40.9217 6.54921 40.8807 6.51697 40.8313 6.47799C40.8182 6.46771 40.8046 6.45696 40.7909 6.44338C40.3333 6.37829 39.9411 6.18304 39.6143 5.98778C39.5489 5.9227 39.2874 5.9227 39.2221 6.05287C39.0913 6.18304 39.1567 6.50846 39.1567 6.50846C39.1567 6.50846 39.6143 6.63863 39.745 6.83388C39.8216 6.91013 39.8758 7.00872 39.9206 7.09039C39.9523 7.14814 39.9794 7.19743 40.0065 7.22439L40.2026 7.41964C40.3333 7.54981 40.3987 7.67998 40.3333 7.74507C40.3333 7.81015 40.1372 7.87523 40.0065 7.87523H39.4182C39.4182 7.87523 40.1372 7.94032 40.3987 8.0054C40.5948 8.07049 40.6602 8.13557 40.7256 8.20066C40.7256 8.2332 40.7419 8.28201 40.7582 8.33083C40.7746 8.37964 40.7909 8.42845 40.7909 8.461C40.6602 8.41218 40.5376 8.36337 40.4202 8.31659C40.0906 8.18533 39.8012 8.07009 39.4844 8.01578C39.4572 8.00917 39.4339 8.0054 39.4182 8.0054C39.4404 8.00856 39.4624 8.01203 39.4844 8.01578C39.5703 8.0367 39.6954 8.08614 39.745 8.13557C39.8104 8.20066 39.8104 8.33083 39.8104 8.33083C39.745 8.72133 39.1567 8.72133 39.1567 8.72133V9.24201C39.3969 9.31034 39.6911 9.3428 40.0016 9.37705C40.2826 9.40805 40.5768 9.44051 40.8563 9.50235C40.8563 9.50235 40.9217 9.37218 40.987 9.30709C41.0742 9.13354 41.2195 9.01783 41.3647 8.90212C41.4374 8.84427 41.51 8.78642 41.5754 8.72133C41.7479 8.54955 41.9386 8.39591 42.1188 8.25083C42.2799 8.12106 42.4325 7.99815 42.5559 7.87523C42.5924 7.83889 42.6238 7.81269 42.6516 7.78955Z" fill="#0099CC"></path><path fill-rule="evenodd" clip-rule="evenodd" d="M39.875 2.21287C43.1435 2.14779 45.9544 1.43186 48.7653 0C50.661 3.64473 50.9225 9.50234 49.419 14.4488C47.8501 19.1999 44.8431 23.4955 39.9404 26.2291C34.9723 23.4955 32.0307 19.1999 30.4618 14.4488C28.8276 9.50234 29.1544 3.64473 30.9848 0C33.7957 1.43186 36.6065 2.21287 39.875 2.21287ZM39.8773 24.0161C43.9302 21.4778 46.0874 17.8982 47.4601 13.863C48.7022 10.2182 49.029 6.05282 47.6562 2.7986C45.6904 3.4931 44.5243 3.69763 43.4418 3.88749C43.4084 3.89335 43.3751 3.89919 43.3419 3.90503C43.264 3.91473 43.1868 3.92443 43.11 3.93407C42.1563 4.05387 41.2688 4.16537 39.8773 4.16537C38.4858 4.16537 37.5982 4.05387 36.6445 3.93407C36.5678 3.92443 36.4906 3.91473 36.4127 3.90503C36.3794 3.89919 36.3461 3.89335 36.3127 3.88749C35.2302 3.69763 34.0641 3.4931 32.0983 2.7986C30.7909 6.05282 31.0524 10.2833 32.2944 13.863C33.6672 17.9633 35.8244 21.5429 39.8773 24.0161Z" fill="#0099CC"></path></svg>